Coordinates
version=1
nRows=32
nColumns=12
inDegrees=yes

Units are S.I. units (second, meters, Newtons, ...)
Angles are in degrees

endheader
time	SC_y	SC_z	SC_x	AC_y	AC_z	AC_x	GH_y	GH_z	GH_yy	EL_x	PS_y
       0.0              -27.91          15.32          50.14          52.03         -12.56          6.664          66.03          49.87          160.6           53.3          76.82
   0.01853              -27.92          15.32          50.14          52.03         -12.56          6.665          66.03          49.87          160.5          53.31          76.82
   0.03707              -27.92          15.32          50.14          52.03         -12.56          6.665          66.03          49.87          160.5          53.31          76.82
    0.0556              -27.92          15.31          50.15          52.03         -12.55          6.665          66.03          49.87          160.4          53.31          76.82
   0.07414              -27.93          15.31          50.15          52.04         -12.55          6.665          66.03          49.87          160.4          53.31          76.82
   0.09267              -27.93          15.31          50.16          52.04         -12.55          6.666          66.03          49.87          160.4          53.31          76.82
    0.1112              -27.93           15.3          50.16          52.04         -12.55          6.666          66.03          49.87          160.3          53.32          76.82
    0.1297              -27.94           15.3          50.17          52.04         -12.55          6.666          66.04          49.87          160.3          53.32          76.82
    0.1483              -27.94          15.29          50.18          52.05         -12.55          6.667          66.04          49.87          160.2          53.32          76.82
    0.1668              -27.95          15.29          50.18          52.05         -12.55          6.667          66.04          49.87          160.1          53.32          76.82
    0.1853              -27.95          15.28          50.19          52.05         -12.55          6.667          66.04          49.87          160.1          53.33          76.82
    0.2039              -27.96          15.28           50.2          52.06         -12.55          6.668          66.04          49.87          160.0          53.33          76.82
    0.2224              -27.96          15.27          50.21          52.06         -12.55          6.668          66.05          49.86          159.9          53.33          76.82
     0.241              -27.97          15.27          50.22          52.06         -12.55          6.669          66.05          49.86          159.9          53.34          76.82
    0.2595              -27.98          15.26          50.23          52.07         -12.55          6.669          66.05          49.86          159.8          53.34          76.82
     0.278              -27.99          15.25          50.24          52.07         -12.55           6.67          66.05          49.86          159.7          53.35          76.82
    0.2966              -27.99          15.24          50.25          52.08         -12.55          6.671          66.06          49.86          159.6          53.35          76.82
    0.3151               -28.0          15.23          50.26          52.09         -12.55          6.671          66.06          49.86          159.5          53.36          76.82
    0.3336              -28.01          15.22          50.28          52.09         -12.55          6.672          66.06          49.85          159.4          53.36          76.81
    0.3522              -28.02          15.21          50.29           52.1         -12.55          6.673          66.07          49.85          159.2          53.37          76.81
    0.3707              -28.04           15.2          50.31          52.11         -12.54          6.674          66.07          49.85          159.1          53.38          76.81
    0.3892              -28.05          15.19          50.33          52.12         -12.54          6.675          66.08          49.85          158.9          53.38          76.81
    0.4078              -28.06          15.18          50.35          52.12         -12.54          6.676          66.08          49.84          158.7          53.39          76.81
    0.4263              -28.08          15.16          50.37          52.14         -12.54          6.677          66.09          49.84          158.5           53.4          76.81
    0.4448               -28.1          15.14           50.4          52.15         -12.54          6.679           66.1          49.84          158.3          53.41          76.81
    0.4634              -28.12          15.12          50.43          52.16         -12.54           6.68           66.1          49.83          158.1          53.43           76.8
    0.4819              -28.14           15.1          50.46          52.17         -12.54          6.682          66.11          49.83          157.8          53.44           76.8
    0.5004              -28.17          15.08           50.5          52.19         -12.53          6.684          66.12          49.82          157.5          53.45           76.8
     0.519              -28.19          15.05          50.54          52.21         -12.53          6.686          66.13          49.82          157.2          53.47           76.8
    0.5375              -28.23          15.02          50.58          52.23         -12.53          6.689          66.14          49.81          156.8          53.49          76.79
     0.556              -28.26          14.98          50.64          52.25         -12.52          6.692          66.16           49.8          156.3          53.51          76.79
    0.5746               -28.3          14.94           50.7          52.28         -12.52          6.695          66.17          49.79          155.8          53.54          76.79
